HIERARCHY
ROOT Hips
{
    OFFSET 0.000000 0.000000 0.000000
    CHANNELS 6 Xposition Yposition Zposition Zrotation Xrotation Yrotation
    JOINT Spine
    {
        OFFSET -0.000000 14.517291 0.000000
        CHANNELS 3 Zrotation Xrotation Yrotation
        JOINT Spine1
        {
            OFFSET -0.000000 37.558300 0.000000
            CHANNELS 3 Zrotation Xrotation Yrotation
            JOINT Neck
            {
                OFFSET -0.000000 37.404057 3.400369
                CHANNELS 3 Zrotation Xrotation Yrotation
                JOINT Head
                {
                    OFFSET -0.000000 24.785618 -3.540803
                    CHANNELS 3 Zrotation Xrotation Yrotation
                    End Site
                    {
                        OFFSET -0.000000 35.408028 0.000000
                    }
                }
            }
            JOINT LeftShoulder
            {
                OFFSET 6.992933 33.973492 -0.192664
                CHANNELS 3 Zrotation Xrotation Yrotation
                JOINT LeftArm
                {
                    OFFSET 21.527611 0.000000 0.000000
                    CHANNELS 3 Zrotation Xrotation Yrotation
                    JOINT LeftForeArm
                    {
                        OFFSET 56.353916 0.000000 0.000000
                        CHANNELS 3 Zrotation Xrotation Yrotation
                        JOINT LeftHand
                        {
                            OFFSET 47.774071 0.000000 0.000000
                            CHANNELS 3 Zrotation Xrotation Yrotation
                            End Site
                            {
                                OFFSET 26.556021 0.000000 0.000000
                            }
                        }
                    }
                }
            }
            JOINT RightShoulder
            {
                OFFSET -7.065357 33.973492 -0.192664
                CHANNELS 3 Zrotation Xrotation Yrotation
                JOINT RightArm
                {
                    OFFSET -21.527611 0.000000 0.000000
                    CHANNELS 3 Zrotation Xrotation Yrotation
                    JOINT RightForeArm
                    {
                        OFFSET -56.353916 0.000000 0.000000
                        CHANNELS 3 Zrotation Xrotation Yrotation
                        JOINT RightHand
                        {
                            OFFSET -47.774071 0.000000 0.000000
                            CHANNELS 3 Zrotation Xrotation Yrotation
                            End Site
                            {
                                OFFSET -26.556021 0.000000 0.000000
                            }
                        }
                    }
                }
            }
        }
    }
    JOINT LeftUpLeg
    {
        OFFSET 17.704014 0.000000 0.000000
        CHANNELS 3 Zrotation Xrotation Yrotation
        JOINT LeftLeg
        {
            OFFSET -0.000000 -81.181816 0.000000
            CHANNELS 3 Zrotation Xrotation Yrotation
            JOINT LeftFoot
            {
                OFFSET -0.000000 -62.821102 0.000000
                CHANNELS 3 Zrotation Xrotation Yrotation
                JOINT LeftToeBase
                {
                    OFFSET -0.000000 -11.507608 26.556021
                    CHANNELS 3 Zrotation Xrotation Yrotation
                    End Site
                    {
                        OFFSET -0.000000 0.000000 7.081605
                    }
                }
            }
        }
    }
    JOINT RightUpLeg
    {
        OFFSET -17.704014 0.000000 0.000000
        CHANNELS 3 Zrotation Xrotation Yrotation
        JOINT RightLeg
        {
            OFFSET -0.000000 -81.181816 0.000000
            CHANNELS 3 Zrotation Xrotation Yrotation
            JOINT RightFoot
            {
                OFFSET -0.000000 -62.821102 0.000000
                CHANNELS 3 Zrotation Xrotation Yrotation
                JOINT RightToeBase
                {
                    OFFSET -0.000000 -11.507608 26.556021
                    CHANNELS 3 Zrotation Xrotation Yrotation
                    End Site
                    {
                        OFFSET -0.000000 0.000000 7.081605
                    }
                }
            }
        }
    }
}
MOTION
Frames:    8
Frame Time:    0.008333
4.909553    163.568451    -124.096062    -4.652402    -8.378333    36.187397    0.722917    -3.054169    -0.596147    -5.603719    2.349347    -0.090560    10.827703    -5.400407    -6.742925    9.537231    11.328403    -8.748507    10.207737    4.132698    -25.187412    -23.587086    20.080429    -75.415230    -16.939795    -7.597972    -75.402954    15.026942    -21.044420    -5.042931    -14.671667    -7.506247    0.096088    25.536413    -25.855413    73.351982    -3.335430    -6.621694    33.275291    -12.492763    -8.834698    28.879433    7.747278    -1.312283    -6.401974    -9.952711    15.470311    -19.029404    10.716882    -9.213395    46.167416    0.000000    0.000000    0.000000    0.078451    -14.717015    -12.154457    14.772034    32.532478    -17.759111    4.101894    3.079159    -14.201932    0.000000    0.000000    0.000000    
4.956513    163.556671    -124.063400    -4.649906    -8.412204    36.191383    0.727901    -3.055898    -0.593193    -5.594917    2.372860    -0.088804    10.839476    -5.367307    -6.744568    9.545010    11.311893    -8.747643    10.207635    4.130158    -25.182646    -23.592169    20.085915    -75.411263    -16.960291    -7.601883    -75.430893    15.123714    -21.070391    -5.014944    -14.657314    -7.480836    0.091647    25.533773    -25.849398    73.333672    -3.328584    -6.630659    33.297226    -12.490772    -8.845434    28.888046    7.753039    -1.311049    -6.361764    -9.942390    15.584954    -19.103176    10.745868    -9.277647    46.218250    0.000000    0.000000    0.000000    0.059243    -14.722641    -12.184499    14.790875    32.643700    -17.741577    4.164031    3.080563    -14.200109    0.000000    0.000000    0.000000    
5.004519    163.544434    -124.027359    -4.649313    -8.454857    36.198826    0.738385    -3.057888    -0.599344    -5.577622    2.409755    -0.089510    10.860730    -5.379597    -6.741309    9.508187    11.341407    -8.753739    10.193999    4.123941    -25.176260    -23.604570    20.095905    -75.389427    -16.931499    -7.599642    -75.453072    15.086344    -21.051823    -5.026988    -14.653247    -7.449131    0.095221    25.522638    -25.851027    73.321175    -3.336658    -6.638225    33.299149    -12.493380    -8.851155    28.887442    7.771559    -1.314460    -6.337637    -9.961569    15.717752    -19.142912    10.804765    -9.335224    46.260258    0.000000    0.000000    0.000000    0.047435    -14.725835    -12.168491    14.851871    32.740952    -17.835787    4.187920    3.095755    -14.190565    0.000000    0.000000    0.000000    
5.107828    163.548325    -123.980415    -4.589243    -8.533621    36.187355    0.766276    -3.025775    -0.586752    -5.611709    2.466171    -0.082061    10.858142    -5.390746    -6.731041    9.526123    11.389337    -8.746887    10.187140    4.125267    -25.158663    -23.615355    20.103479    -75.374130    -16.951715    -7.585014    -75.484406    15.135670    -21.060463    -5.013273    -14.646927    -7.427428    0.100428    25.443506    -25.828096    73.186829    -3.296656    -6.738427    33.480759    -12.408962    -8.920026    28.754002    7.738250    -1.210972    -6.319094    -9.954936    15.792910    -19.151201    10.822968    -9.367529    46.287354    0.000000    0.000000    0.000000    -0.002347    -14.637296    -12.126658    14.918430    32.818390    -17.880241    4.223444    3.108206    -14.192060    0.000000    0.000000    0.000000    
5.159269    163.533127    -123.938965    -4.578602    -8.588805    36.189594    0.765701    -3.012521    -0.590517    -5.586047    2.501514    -0.082069    10.857635    -5.398350    -6.714388    9.528858    11.410561    -8.731812    10.176186    4.119635    -25.157436    -23.639263    20.101690    -75.335846    -16.957464    -7.562366    -75.499084    14.867391    -21.047440    -5.109651    -14.639318    -7.409469    0.093725    25.519882    -25.828165    73.296654    -3.308527    -6.700274    33.320129    -12.322472    -8.868504    28.816875    7.758097    -1.200484    -6.295279    -9.969917    15.938705    -19.190504    10.889924    -9.421681    46.320335    0.000000    0.000000    0.000000    -0.012291    -14.619147    -12.083383    14.992409    32.911266    -17.934313    4.258892    3.104188    -14.234669    0.000000    0.000000    0.000000    
5.207938    163.517975    -123.897316    -4.576319    -8.643270    36.194584    0.759406    -3.001667    -0.599249    -5.541265    2.535449    -0.084175    10.834942    -5.406348    -6.710361    9.547709    11.434879    -8.725133    10.147014    4.115158    -25.155106    -23.649519    20.095810    -75.300117    -16.984072    -7.520956    -75.535995    14.924541    -21.036665    -5.089363    -14.640864    -7.392057    0.090974    25.546289    -25.851000    73.307533    -3.255597    -6.645430    33.299023    -12.346287    -8.842749    28.872746    7.785666    -1.204124    -6.259411    -9.992252    16.092735    -19.191736    10.928754    -9.499413    46.323505    0.000000    0.000000    0.000000    -0.012098    -14.604243    -12.048421    15.047264    33.002544    -17.980154    4.312191    3.090643    -14.262274    0.000000    0.000000    0.000000    
5.255858    163.496796    -123.853699    -4.564369    -8.698135    36.198467    0.743757    -2.982545    -0.606884    -5.501103    2.562330    -0.086247    10.810600    -5.402356    -6.701995    9.574240    11.446159    -8.711041    10.129693    4.118099    -25.152981    -23.661982    20.078358    -75.272598    -16.993523    -7.478220    -75.547691    14.872885    -21.003576    -5.086259    -14.648872    -7.359219    0.108891    25.536036    -25.867197    73.281303    -3.247921    -6.615501    33.276070    -12.344480    -8.818696    28.900000    7.805702    -1.213264    -6.193001    -9.997996    16.291368    -19.227840    10.971885    -9.603146    46.308506    0.000000    0.000000    0.000000    -0.035665    -14.560202    -11.996400    15.173530    33.050110    -18.043816    4.295991    3.065961    -14.305575    0.000000    0.000000    0.000000    
5.301102    163.476532    -123.814133    -4.552987    -8.752095    36.197655    0.742847    -2.925725    -0.625745    -5.498817    2.473519    -0.096433    10.823947    -5.255397    -6.708272    9.577963    11.396853    -8.701773    10.088002    4.189804    -25.214483    -23.695417    20.070051    -75.145500    -17.000599    -7.419363    -75.576340    15.220994    -20.947184    -4.866313    -14.574788    -7.285995    0.213653    25.520077    -25.891232    73.230484    -3.220194    -6.464009    33.249775    -12.450953    -8.714128    28.984240    7.826045    -1.222853    -6.139093    -10.015450    16.473667    -19.220596    11.002160    -9.702085    46.295845    0.000000    0.000000    0.000000    -0.045762    -14.540104    -11.961443    15.234882    33.139736    -18.112135    4.322786    3.055029    -14.290253    0.000000    0.000000    0.000000    
